{"title":"The Bachelor Au - S04E09","uid":15644891,"size":417528164,"categoryP":"video","categoryS":"tv_shows","magnet":"?xt=urn:btih:f68529ae24f86ac5ccda095f123f2846ddcffd49&amp;dn=The+Bachelor+Au+-+S04E09&amp;tr=udp%3A%2F%2Ftracker.leechers-paradise.org%3A6969&amp;tr=udp%3A%2F%2Fzer0day.ch%3A1337&amp;tr=udp%3A%2F%2Fopen.demonii.com%3A1337&amp;tr=udp%3A%2F%2Ftracker.coppersurfer.tk%3A6969&amp;tr=udp%3A%2F%2Fexodus.desync.com%3A6969","seeders":21,"leechers":1,"uploader":"Bullrout","files":1,"time":1472045757,"description":"The Bachelor Au - S04E09\r\n\r\nRichie is hoping to take it up a notch as he takes his chosen lady for a high-octane jet-ski ride. Plus, is it possible to measure love? Richie puts his group dates up for a compatibility test.\r\n\r\n\r\nComplete name                            : The Bachelor Au - S04E09.mp4\r\nFormat                                   : MPEG-4\r\nFormat profile                           : Base Media / Version 2\r\nCodec ID                                 : mp42 (mp42/isom/avc1)\r\nFile size                                : 398 MiB\r\nDuration                                 : 50mn 3s\r\nOverall bit rate mode                    : Variable\r\nOverall bit rate                         : 1 112 Kbps\r\n\r\nVideo\r\nID                                       : 2\r\nFormat                                   : AVC\r\nFormat/Info                              : Advanced Video Codec\r\nFormat profile                           :   \r\nFormat settings, CABAC                   : Yes\r\nFormat settings, ReFrames                : 3 frames\r\nCodec ID                                 : avc1\r\nCodec ID/Info                            : Advanced Video Coding\r\nDuration                                 : 50mn 3s\r\nBit rate mode                            : Variable\r\nBit rate                                 : 981 Kbps\r\nMaximum bit rate                         : 1 000 Kbps\r\nWidth                                    : 720 pixels\r\nHeight                                   : 404 pixels\r\nDisplay aspect ratio                     : 16:9\r\nOriginal display aspect ratio            : 16:9\r\nFrame rate mode                          : Constant\r\nFrame rate                               : 25.000 fps\r\nStandard                                 : PAL\r\nColor space                              : YUV\r\nChroma subsampling                       : 4:2:0\r\nBit depth                                : 8 bits\r\nScan type                                : Progressive\r\nBits/(Pixel*Frame)                       : 0.135\r\nStream size                              : 351 MiB (88%)\r\nWriting library                          : x264 core 112\r\nColor range                              : Limited\r\nColor primaries                          : BT.601 PAL\r\nTransfer characteristics                 : BT.470 System B, BT.470 System G\r\nMatrix coefficients                      : BT.601\r\n\r\nAudio\r\nID                                       : 1\r\nFormat                                   : AAC\r\nFormat/Info                              : Advanced Audio Codec\r\nFormat profile                           : LC\r\nCodec ID                                 : 40\r\nDuration                                 : 50mn 3s\r\nBit rate mode                            : Variable\r\nBit rate                                 : 128 Kbps\r\nMaximum bit rate                         : 576 Kbps\r\nChannel(s)                               : 2 channels\r\nChannel positions                        : Front: L R\r\nSampling rate                            : 48.0 KHz\r\nFrame rate                               : 46.875 fps (1024 spf)\r\nCompression mode                         : Lossy\r\nStream size                              : 45.8 MiB (12%)","torrent":{"xt":"urn:btih:f68529ae24f86ac5ccda095f123f2846ddcffd49","amp;dn":"The+Bachelor+Au+-+S04E09","amp;tr":["udp%3A%2F%2Ftracker.leechers-paradise.org%3A6969","udp%3A%2F%2Fzer0day.ch%3A1337","udp%3A%2F%2Fopen.demonii.com%3A1337","udp%3A%2F%2Ftracker.coppersurfer.tk%3A6969","udp%3A%2F%2Fexodus.desync.com%3A6969"],"infoHash":"f68529ae24f86ac5ccda095f123f2846ddcffd49","infoHashBuffer":{"type":"Buffer","data":[246,133,41,174,36,248,106,197,204,218,9,95,18,63,40,70,221,207,253,73]},"announce":[],"urlList":[]}}